<svg width="11" height="14" viewBox="0 0 11 14" fill="none" xmlns="http://www.w3.org/2000/svg">
<path d="M3.66667 6.06299H2.44444V7.39426H3.66667V6.06299ZM6.11111 6.06299H4.88889V7.39426H6.11111V6.06299ZM8.55556 6.06299H7.33333V7.39426H8.55556V6.06299ZM9.77778 1.40354H9.16667V0.0722656H7.94444V1.40354H3.05556V0.0722656H1.83333V1.40354H1.22222C0.543889 1.40354 0 2.00261 0 2.73481V12.0537C0 12.4068 0.128769 12.7454 0.357981 12.9951C0.587192 13.2447 0.898069 13.385 1.22222 13.385H9.77778C10.1019 13.385 10.4128 13.2447 10.642 12.9951C10.8712 12.7454 11 12.4068 11 12.0537V2.73481C11 2.38173 10.8712 2.04312 10.642 1.79346C10.4128 1.5438 10.1019 1.40354 9.77778 1.40354ZM9.77778 12.0537H1.22222V4.73172H9.77778V12.0537Z" fill="black"/>
</svg>
