<svg width="48" height="40" viewBox="0 0 48 40" fill="none" xmlns="http://www.w3.org/2000/svg">
<path d="M4.77238 4.44444H11.9309L16.7033 0H31.0204L35.7928 4.44444H42.9514C44.2171 4.44444 45.431 4.9127 46.326 5.74619C47.221 6.57969 47.7238 7.71015 47.7238 8.88889V35.5556C47.7238 36.7343 47.221 37.8648 46.326 38.6983C45.431 39.5317 44.2171 40 42.9514 40H4.77238C3.50666 40 2.29279 39.5317 1.3978 38.6983C0.502802 37.8648 0 36.7343 0 35.5556V8.88889C0 7.71015 0.502802 6.57969 1.3978 5.74619C2.29279 4.9127 3.50666 4.44444 4.77238 4.44444ZM23.8619 11.1111C20.6976 11.1111 17.6629 12.2817 15.4254 14.3655C13.1879 16.4492 11.9309 19.2754 11.9309 22.2222C11.9309 25.1691 13.1879 27.9952 15.4254 30.079C17.6629 32.1627 20.6976 33.3333 23.8619 33.3333C27.0262 33.3333 30.0608 32.1627 32.2983 30.079C34.5358 27.9952 35.7928 25.1691 35.7928 22.2222C35.7928 19.2754 34.5358 16.4492 32.2983 14.3655C30.0608 12.2817 27.0262 11.1111 23.8619 11.1111ZM23.8619 15.5556C25.7605 15.5556 27.5813 16.2579 28.9237 17.5082C30.2662 18.7584 31.0204 20.4541 31.0204 22.2222C31.0204 23.9903 30.2662 25.686 28.9237 26.9363C27.5813 28.1865 25.7605 28.8889 23.8619 28.8889C21.9633 28.8889 20.1425 28.1865 18.8 26.9363C17.4575 25.686 16.7033 23.9903 16.7033 22.2222C16.7033 20.4541 17.4575 18.7584 18.8 17.5082C20.1425 16.2579 21.9633 15.5556 23.8619 15.5556Z" fill="#00C782"/>
</svg>
