<svg width="20" height="14" viewBox="0 0 20 14" fill="none" xmlns="http://www.w3.org/2000/svg">
<path d="M17.5 10.5C17.5 10.6326 17.4473 10.7598 17.3536 10.8536C17.2598 10.9473 17.1326 11 17 11C16.8674 11 16.7402 10.9473 16.6464 10.8536C16.5527 10.7598 16.5 10.6326 16.5 10.5V3.5C16.5 1.57 14.43 0 12.5 0H4C2.93913 0 1.92172 0.421427 1.17157 1.17157C0.421427 1.92172 0 2.93913 0 4V14H4V10H9V14H13V9.5C13 9.36739 13.0527 9.24021 13.1464 9.14645C13.2402 9.05268 13.3674 9 13.5 9C13.6326 9 13.7598 9.05268 13.8536 9.14645C13.9473 9.24021 14 9.36739 14 9.5V11C14 11.7956 14.3161 12.5587 14.8787 13.1213C15.4413 13.6839 16.2044 14 17 14C17.7956 14 18.5587 13.6839 19.1213 13.1213C19.6839 12.5587 20 11.7956 20 11V9H17.5V10.5Z" fill="black"/>
</svg>
