<svg width="19" height="18" viewBox="0 0 19 18" fill="none" xmlns="http://www.w3.org/2000/svg">
<path d="M17.9444 12.5C16.6778 12.5 15.3056 12.3 14.1444 11.9C14.0389 11.9 13.9333 11.9 13.8278 11.9C13.5111 11.9 13.3 12 13.0889 12.2L10.7667 14.4C7.81111 12.9 5.27778 10.6 3.8 7.8L6.12222 5.6C6.43889 5.3 6.54444 4.9 6.33333 4.6C6.01667 3.5 5.80556 2.2 5.80556 1C5.80556 0.5 5.27778 0 4.75 0H1.05556C0.527778 0 0 0.5 0 1C0 10.4 8.02222 18 17.9444 18C18.4722 18 19 17.5 19 17V13.5C19 13 18.4722 12.5 17.9444 12.5ZM2.11111 2H3.69444C3.8 2.9 4.01111 3.8 4.22222 4.6L2.95556 5.8C2.53333 4.6 2.21667 3.3 2.11111 2ZM16.8889 16C15.5167 15.9 14.1444 15.6 12.8778 15.2L14.1444 14C14.9889 14.2 15.9389 14.4 16.8889 14.4V16Z" fill="white"/>
</svg>
