<svg width="20" height="19" viewBox="0 0 20 19" fill="none" xmlns="http://www.w3.org/2000/svg">
<path d="M10 0C11.3261 0 12.5979 0.500445 13.5355 1.39124C14.4732 2.28204 15 3.49022 15 4.75C15 6.00978 14.4732 7.21796 13.5355 8.10876C12.5979 8.99956 11.3261 9.5 10 9.5C8.67392 9.5 7.40215 8.99956 6.46447 8.10876C5.52678 7.21796 5 6.00978 5 4.75C5 3.49022 5.52678 2.28204 6.46447 1.39124C7.40215 0.500445 8.67392 0 10 0ZM10 11.875C15.525 11.875 20 14.0006 20 16.625V19H0V16.625C0 14.0006 4.475 11.875 10 11.875Z" fill="white"/>
</svg>
