<svg width="14" height="16" viewBox="0 0 14 16" fill="none" xmlns="http://www.w3.org/2000/svg">
<path d="M5.6 10.8542H6.3V9.41675H5.6C5.369 9.41675 4.2 9.34487 4.2 7.97925C4.2 6.66394 5.278 6.54175 5.6 6.54175H6.3V5.10425H5.6C4.473 5.10425 2.8 5.87331 2.8 7.97925C2.8 10.0924 4.473 10.8542 5.6 10.8542ZM7.7 10.8542H8.4C9.527 10.8542 11.2 10.0924 11.2 7.97925C11.2 5.87331 9.527 5.10425 8.4 5.10425H7.7V6.54175H8.4C8.631 6.54175 9.8 6.61362 9.8 7.97925C9.8 9.29456 8.722 9.41675 8.4 9.41675H7.7V10.8542ZM4.9 8.698H9.1V7.2605H4.9V8.698ZM4.319 1.338C5.173 0.978623 6.083 0.791748 7 0.791748C7.917 0.791748 8.827 0.978623 9.681 1.338C10.528 1.69737 11.298 2.22925 11.949 2.89769C12.6 3.56612 13.118 4.35675 13.468 5.22644C13.818 6.10331 14 7.03769 14 7.97925C14 9.88394 13.265 11.7167 11.949 13.0608C10.64 14.4121 8.855 15.1667 7 15.1667C6.083 15.1667 5.173 14.9799 4.319 14.6205C3.472 14.2611 2.702 13.7292 2.051 13.0608C0.735 11.7167 0 9.88394 0 7.97925C0 6.07456 0.735 4.24175 2.051 2.89769C2.702 2.22925 3.472 1.69737 4.319 1.338ZM3.038 12.0474C4.088 13.1255 5.516 13.7292 7 13.7292C8.484 13.7292 9.912 13.1255 10.962 12.0474C12.012 10.9692 12.6 9.503 12.6 7.97925C12.6 6.4555 12.012 4.98925 10.962 3.91112C9.912 2.833 8.484 2.22925 7 2.22925C5.516 2.22925 4.088 2.833 3.038 3.91112C1.988 4.98925 1.4 6.4555 1.4 7.97925C1.4 9.503 1.988 10.9692 3.038 12.0474Z" fill="black"/>
</svg>
