<svg width="14" height="13" viewBox="0 0 14 13" fill="none" xmlns="http://www.w3.org/2000/svg">
<path d="M5.09907 12.1001C4.92808 12.1001 4.76409 12.0364 4.64318 11.9231C4.52227 11.8098 4.45434 11.6561 4.45434 11.4958V9.68283H1.87541C1.53342 9.68283 1.20544 9.55549 0.963614 9.32882C0.721792 9.10216 0.585938 8.79473 0.585938 8.47418V1.22232C0.585938 0.551519 1.1662 0.0136719 1.87541 0.0136719H12.1911C12.5331 0.0136719 12.8611 0.141011 13.1029 0.367676C13.3448 0.59434 13.4806 0.901764 13.4806 1.22232V8.47418C13.4806 8.79473 13.3448 9.10216 13.1029 9.32882C12.8611 9.55549 12.5331 9.68283 12.1911 9.68283H8.25827L5.87275 11.9249C5.74381 12.0397 5.58262 12.1001 5.42144 12.1001H5.09907ZM5.74381 8.47418V10.3355L7.72959 8.47418H12.1911V1.22232H1.87541V8.47418H5.74381ZM3.16487 3.03528H10.9017V4.24393H3.16487V3.03528ZM3.16487 5.45257H8.96748V6.66122H3.16487V5.45257Z" fill="black"/>
</svg>
