<svg width="19" height="19" viewBox="0 0 19 19" fill="none" xmlns="http://www.w3.org/2000/svg">
<path d="M17.9444 12.5271C16.6778 12.5271 15.3056 12.3267 14.1444 11.9258C14.0389 11.9258 13.9333 11.9258 13.8278 11.9258C13.5111 11.9258 13.3 12.0261 13.0889 12.2265L10.7667 14.4313C7.81111 12.928 5.27778 10.623 3.8 7.81694L6.12222 5.61216C6.43889 5.31151 6.54444 4.91064 6.33333 4.60999C6.01667 3.5076 5.80556 2.20478 5.80556 1.00217C5.80556 0.501086 5.27778 0 4.75 0H1.05556C0.527778 0 0 0.501086 0 1.00217C0 10.4226 8.02222 18.0391 17.9444 18.0391C18.4722 18.0391 19 17.538 19 17.0369V13.5293C19 13.0282 18.4722 12.5271 17.9444 12.5271ZM2.11111 2.00434H3.69444C3.8 2.9063 4.01111 3.80825 4.22222 4.60999L2.95556 5.81259C2.53333 4.60999 2.21667 3.30717 2.11111 2.00434ZM16.8889 16.0347C15.5167 15.9345 14.1444 15.6339 12.8778 15.233L14.1444 14.0304C14.9889 14.2308 15.9389 14.4313 16.8889 14.4313V16.0347Z" fill="#1B4332"/>
</svg>
