<svg width="14" height="21" viewBox="0 0 14 21" fill="none" xmlns="http://www.w3.org/2000/svg">
<path d="M7 4.59571C7.66304 4.59571 8.29893 4.85967 8.76777 5.32953C9.23661 5.79939 9.5 6.43666 9.5 7.10114C9.5 7.43016 9.43534 7.75595 9.3097 8.05992C9.18406 8.3639 8.99991 8.64009 8.76777 8.87274C8.53562 9.10539 8.26002 9.28994 7.95671 9.41585C7.65339 9.54176 7.3283 9.60657 7 9.60657C6.33696 9.60657 5.70107 9.3426 5.23223 8.87274C4.76339 8.40288 4.5 7.76562 4.5 7.10114C4.5 6.43666 4.76339 5.79939 5.23223 5.32953C5.70107 4.85967 6.33696 4.59571 7 4.59571ZM7 0.0859375C8.85652 0.0859375 10.637 0.825037 11.9497 2.14064C13.2625 3.45625 14 5.24059 14 7.10114C14 12.3625 7 20.1294 7 20.1294C7 20.1294 0 12.3625 0 7.10114C0 5.24059 0.737498 3.45625 2.05025 2.14064C3.36301 0.825037 5.14348 0.0859375 7 0.0859375ZM7 2.09028C5.67392 2.09028 4.40215 2.61821 3.46447 3.55793C2.52678 4.49764 2 5.77218 2 7.10114C2 8.10331 2 10.1077 7 16.8322C12 10.1077 12 8.10331 12 7.10114C12 5.77218 11.4732 4.49764 10.5355 3.55793C9.59785 2.61821 8.32608 2.09028 7 2.09028Z" fill="#1B4332"/>
</svg>
