<svg width="14" height="20" viewBox="0 0 14 20" fill="none" xmlns="http://www.w3.org/2000/svg">
<path d="M0 13.3333H2.8C2.8 14.5333 4.718 15.5556 7 15.5556C9.282 15.5556 11.2 14.5333 11.2 13.3333C11.2 12.1111 9.744 11.6667 6.664 11.0778C3.696 10.4889 0 9.75556 0 6.66667C0 4.67778 2.058 2.98889 4.9 2.42222V0H9.1V2.42222C11.942 2.98889 14 4.67778 14 6.66667H11.2C11.2 5.46667 9.282 4.44444 7 4.44444C4.718 4.44444 2.8 5.46667 2.8 6.66667C2.8 7.88889 4.256 8.33333 7.336 8.92222C10.304 9.51111 14 10.2444 14 13.3333C14 15.3222 11.942 17.0111 9.1 17.5778V20H4.9V17.5778C2.058 17.0111 0 15.3222 0 13.3333Z" fill="#075605"/>
</svg>
