<svg width="18" height="18" viewBox="0 0 18 18" fill="none" xmlns="http://www.w3.org/2000/svg">
<path d="M6.5 0.236328C8.22391 0.236328 9.87721 0.921147 11.0962 2.14013C12.3152 3.35912 13 5.01242 13 6.73633C13 8.34633 12.41 9.82633 11.44 10.9663L11.71 11.2363H12.5L17.5 16.2363L16 17.7363L11 12.7363V11.9463L10.73 11.6763C9.59 12.6463 8.11 13.2363 6.5 13.2363C4.77609 13.2363 3.12279 12.5515 1.90381 11.3325C0.684819 10.1135 0 8.46024 0 6.73633C0 5.01242 0.684819 3.35912 1.90381 2.14013C3.12279 0.921147 4.77609 0.236328 6.5 0.236328ZM6.5 2.23633C4 2.23633 2 4.23633 2 6.73633C2 9.23633 4 11.2363 6.5 11.2363C9 11.2363 11 9.23633 11 6.73633C11 4.23633 9 2.23633 6.5 2.23633Z" fill="#075605"/>
</svg>
