<svg width="15" height="17" viewBox="0 0 15 17" fill="none" xmlns="http://www.w3.org/2000/svg">
<path d="M7.5 14.4986C10.8 14.4986 13.5 11.7336 13.5 8.35424C13.5 4.97486 10.8 2.20991 7.5 2.20991C4.2 2.20991 1.5 4.97486 1.5 8.35424C1.5 11.7336 4.2 14.4986 7.5 14.4986ZM7.5 0.673828C11.625 0.673828 15 4.13001 15 8.35424C15 12.5785 11.625 16.0347 7.5 16.0347C3.375 16.0347 0 12.5785 0 8.35424C0 4.13001 3.375 0.673828 7.5 0.673828ZM11.25 9.81352L10.725 10.812L6.75 8.58465V4.51403H7.875V7.89342L11.25 9.81352Z" fill="black"/>
</svg>
