<svg width="13" height="14" viewBox="0 0 13 14" fill="none" xmlns="http://www.w3.org/2000/svg">
<path d="M6.4758 11.7843C7.73853 11.7843 8.94954 11.2325 9.84242 10.2503C10.7353 9.26805 11.2369 7.93588 11.2369 6.54682C11.2369 5.15776 10.7353 3.8256 9.84242 2.84338C8.94954 1.86117 7.73853 1.30936 6.4758 1.30936C5.21308 1.30936 4.00207 1.86117 3.10919 2.84338C2.21631 3.8256 1.71469 5.15776 1.71469 6.54682C1.71469 7.93588 2.21631 9.26805 3.10919 10.2503C4.00207 11.2325 5.21308 11.7843 6.4758 11.7843ZM6.4758 0C7.25735 0 8.03125 0.169339 8.7533 0.498347C9.47536 0.827356 10.1314 1.30959 10.6841 1.91752C11.2367 2.52545 11.6751 3.24717 11.9742 4.04146C12.2733 4.83576 12.4272 5.68708 12.4272 6.54682C12.4272 8.28315 11.8002 9.94836 10.6841 11.1761C9.56797 12.4039 8.05421 13.0936 6.4758 13.0936C3.18468 13.0936 0.524414 10.1476 0.524414 6.54682C0.524414 4.8105 1.15143 3.14529 2.26754 1.91752C3.38364 0.689753 4.8974 0 6.4758 0ZM6.77337 3.27341V6.71049L9.4515 8.4585L9.00514 9.26376L5.88066 7.20151V3.27341H6.77337Z" fill="#00C782"/>
</svg>
