<svg width="20" height="19" viewBox="0 0 20 19" fill="none" xmlns="http://www.w3.org/2000/svg">
<path d="M2 0C0.89 0 0 0.891594 0 2.00358V6.01074C0 7.12273 0.89 8.01432 2 8.01432H6C7.11 8.01432 8 7.12273 8 6.01074V2.00358C8 0.891594 7.11 0 6 0M6.2 1.50269L7.26 2.55457L3.27 6.51164L0.74 3.95707L1.81 2.90519L3.28 4.39786M2 10.0179C0.89 10.0179 0 10.9095 0 12.0215V16.0286C0 17.1406 0.89 18.0322 2 18.0322H6C7.11 18.0322 8 17.1406 8 16.0286V12.0215C8 10.9095 7.11 10.0179 6 10.0179M2 12.0215H6V16.0286H2M10 2.00358H20V4.00716H10M10 16.0286V14.0251H20V16.0286M10 8.01432H20V10.0179H10V8.01432Z" fill="white"/>
</svg>
