<svg width="20" height="21" viewBox="0 0 20 21" fill="none" xmlns="http://www.w3.org/2000/svg">
<path d="M19.5 15.0269L14.5 20.0358L11 16.5295L12.5 15.0269L14.5 17.0304L18 13.5242L19.5 15.0269ZM2 0C0.89 0 0 0.901611 0 2.00358V18.0322C0 19.1442 0.89 20.0358 2 20.0358H9.81C9.45 19.4147 9.2 18.7335 9.08 18.0322H2V2.00358H9V7.01253H14V11.0998C14.33 11.0497 14.67 11.0197 15 11.0197C15.34 11.0197 15.67 11.0497 16 11.0998V6.01074L10 0M4 10.0179V12.0215H12V10.0179M4 14.0251V16.0286H9V14.0251H4Z" fill="white"/>
</svg>
